#!OML:ASF H:\Punching\Project 1\Capture day 1\Session 1\female.ASF
:FULLY-SPECIFIED
:DEGREES
269
root -0.0956389 14.9245 -1.83478 7.81159 -0.652618 -0.626679
lowerback 2.9547 -0.717252 0.451474
upperback -5.8917 -0.959489 -0.350837
thorax -7.83256 -0.512826 -0.527577
lowerneck -12.3747 1.53961 8.57924
upperneck 27.3595 0.808471 -2.57027
head 10.9272 0.938964 -2.29623
rclavicle -2.31211e-014 -3.77691e-015
rhumerus 31.7499 11.2481 -62.1092
rradius 65.7059
rwrist 0.157319
rhand 30.3151 -35.0011
rfingers 7.12502
rthumb 53.99 -53.8458
lclavicle -2.31211e-014 -3.77691e-015
lhumerus 27.4799 -9.8779 56.6948
lradius 79.8
lwrist -9.12667
lhand 35.3288 25.4046
lfingers 7.12502
lthumb 58.4232 40.7401
rfemur -26.4312 -5.13613 16.5219
rtibia 50.0309
rfoot -27.976 -8.87763
rtoes -13.1769
lfemur -27.482 1.43767 -17.0102
ltibia 50.2041
lfoot -25.3896 9.67356
ltoes -12.9217
270
root -0.0955364 14.9241 -1.83388 7.80353 -0.680283 -0.616629
lowerback 2.96481 -0.721719 0.434886
upperback -5.87876 -0.966388 -0.347695
thorax -7.82423 -0.515069 -0.514278
lowerneck -12.4225 1.50426 8.55964
upperneck 27.358 0.771633 -2.61987
head 10.933 0.913791 -2.31587
rclavicle -1.55052e-014 -1.0138e-014
rhumerus 31.7837 11.2621 -62.1324
rradius 65.6897
rwrist 0.193219
rhand 30.3518 -34.9547
rfingers 7.12502
rthumb 54.0229 -53.7772
lclavicle -1.55052e-014 -1.0138e-014
lhumerus 27.4942 -9.83523 56.6908
lradius 79.8009
lwrist -9.12757
lhand 35.439 25.4854
lfingers 7.12502
lthumb 58.5189 40.7319
rfemur -26.434 -5.09817 16.497
rtibia 50.0402
rfoot -27.9891 -8.84521
rtoes -13.0387
lfemur -27.4655 1.45315 -17.0224
ltibia 50.2096
lfoot -25.3889 9.68571
ltoes -13.0194
271
root -0.0956403 14.9224 -1.83494 7.81042 -0.703854 -0.622201
lowerback 2.96037 -0.724327 0.445764
upperback -5.87549 -0.969211 -0.348212
thorax -7.81835 -0.517131 -0.520713
lowerneck -12.4056 1.46655 8.52683
upperneck 27.341 0.737387 -2.65578
head 10.9201 0.88995 -2.32762
rclavicle -2.70844e-015 4.37326e-015
rhumerus 31.7931 11.2727 -62.1546
rradius 65.6916
rwrist 0.215879
rhand 30.4067 -35.0049
rfingers 7.12502
rthumb 54.0722 -53.794
lclavicle -2.70844e-015 4.37326e-015
lhumerus 27.5026 -9.80542 56.6777
lradius 79.8041
lwrist -9.13646
lhand 35.4272 25.4414
lfingers 7.12502
lthumb 58.5087 40.6973
rfemur -26.4657 -5.06792 16.5079
rtibia 50.062
rfoot -27.9844 -8.89672
rtoes -13.1271
lfemur -27.487 1.48153 -17.0159
ltibia 50.2324
lfoot -25.3951 9.68376
ltoes -13.0087
272
root -0.0958014 14.9223 -1.83433 7.80867 -0.731032 -0.588198
lowerback 2.94102 -0.728442 0.408637
upperback -5.849 -0.977859 -0.356745
thorax -7.77802 -0.519345 -0.508462
lowerneck -12.4808 1.43736 8.4912
upperneck 27.3702 0.704015 -2.68237
head 10.9431 0.868102 -2.33619
rclavicle 8.52289e-015 -4.77083e-015
rhumerus 31.8229 11.2764 -62.1708
rradius 65.6768
rwrist 0.207807
rhand 30.4209 -35.0095
rfingers 7.12502
rthumb 54.085 -53.7899
lclavicle 8.52289e-015 -4.77083e-015
lhumerus 27.5471 -9.76337 56.6669
lradius 79.8158
lwrist -9.13736
lhand 35.3734 25.4603
lfingers 7.12502
lthumb 58.462 40.7598
rfemur -26.4749 -5.03755 16.4671
rtibia 50.0846
rfoot -27.9978 -8.89446
rtoes -13.1189
lfemur -27.4811 1.50294 -17.0563
ltibia 50.2413
lfoot -25.393 9.69621
ltoes -13.0533
273
root -0.0957804 14.921 -1.83474 7.80842 -0.742734 -0.617848
lowerback 2.94003 -0.733596 0.436912
upperback -5.8541 -0.98199 -0.343475
thorax -7.78327 -0.522647 -0.509954
lowerneck -12.4459 1.39652 8.43417
upperneck 27.3776 0.670308 -2.70903
head 10.9357 0.843774 -2.34071
rclavicle -1.17159e-014 1.98785e-015
rhumerus 31.8055 11.3136 -62.1678
rradius 65.6828
rwrist 0.151185
rhand 30.4427 -35.0246
rfingers 7.12502
rthumb 54.1046 -53.7916
lclavicle -1.17159e-014 1.98785e-015
lhumerus 27.5273 -9.74489 56.6728
lradius 79.8193
lwrist -9.1375
lhand 35.3362 25.4483
lfingers 7.12502
lthumb 58.4297 40.7778
rfemur -26.4853 -5.03362 16.4995
rtibia 50.1103
rfoot -28.0332 -8.87207
rtoes -13.0118
lfemur -27.4949 1.52174 -17.0178
ltibia 50.2679
lfoot -25.4225 9.64915
ltoes -12.9559
274
root -0.0964274 14.9199 -1.8358 7.81133 -0.77061 -0.634069
lowerback 2.98674 -0.727596 0.446221
upperback -5.87429 -0.973569 -0.348045
thorax -7.83257 -0.519331 -0.520033
lowerneck -12.4459 1.36519 8.42676
upperneck 27.4089 0.636217 -2.74152
head 10.9448 0.824167 -2.35628
rclavicle 4.34841e-015 -1.41137e-014
rhumerus 31.771 11.3106 -62.2155
rradius 65.6767
rwrist 0.142955
rhand 30.4865 -35.0485
rfingers 7.12502
rthumb 54.1438 -53.7889
lclavicle 4.34841e-015 -1.41137e-014
lhumerus 27.5207 -9.75257 56.6868
lradius 79.8134
lwrist -9.15819
lhand 35.3627 25.4607
lfingers 7.12502
lthumb 58.4527 40.7689
rfemur -26.5149 -4.99688 16.5191
rtibia 50.134
rfoot -28.025 -8.86942
rtoes -12.9435
lfemur -27.5067 1.55925 -16.9979
ltibia 50.2838
lfoot -25.4186 9.65021
ltoes -12.9559
275
root -0.0964972 14.9195 -1.83536 7.80605 -0.782774 -0.639067
lowerback 2.98861 -0.734852 0.466189
upperback -5.8616 -0.982628 -0.358261
thorax -7.82067 -0.525305 -0.541105
lowerneck -12.4951 1.33698 8.39699
upperneck 27.4582 0.603624 -2.76183
head 10.9705 0.804579 -2.3638
rclavicle -1.43001e-014 -5.1684e-015
rhumerus 31.781 11.3681 -62.1566
rradius 65.718
rwrist 0.039332
rhand 30.4234 -35.0763
rfingers 7.12502
rthumb 54.0872 -53.8552
lclavicle -1.43001e-014 -5.1684e-015
lhumerus 27.5393 -9.72947 56.6723
lradius 79.8138
lwrist -9.14581
lhand 35.3608 25.4626
lfingers 7.12502
lthumb 58.4511 40.7723
rfemur -26.5104 -4.99531 16.5247
rtibia 50.1517
rfoot -28.0463 -8.87331
rtoes -12.9804
lfemur -27.5047 1.57458 -16.9934
ltibia 50.3021
lfoot -25.4327 9.65087
ltoes -13.0041
276
root -0.0975262 14.919 -1.83558 7.81035 -0.813204 -0.637704
lowerback 2.9934 -0.722591 0.454398
upperback -5.86106 -0.967809 -0.370732
thorax -7.82269 -0.517736 -0.548974
lowerneck -12.5648 1.30674 8.38898
upperneck 27.5406 0.563987 -2.79311
head 11.0125 0.783495 -2.38059
rclavicle -4.79568e-015 5.76476e-015
rhumerus 31.7413 11.3132 -62.2646
rradius 65.6765
rwrist 0.123462
rhand 30.4373 -35.0559
rfingers 7.12502
rthumb 54.0997 -53.8263
lclavicle -4.79568e-015 5.76476e-015
lhumerus 27.5674 -9.74505 56.6778
lradius 79.8176
lwrist -9.13251
lhand 35.3399 25.4963
lfingers 7.12502
lthumb 58.4329 40.8228
rfemur -26.5347 -4.97724 16.5296
rtibia 50.1628
rfoot -28.0384 -8.87587
rtoes -12.977
lfemur -27.5098 1.62553 -16.9954
ltibia 50.3134
lfoot -25.4463 9.64516
ltoes -13.0066
277
root -0.0974067 14.9182 -1.83569 7.81936 -0.811844 -0.638312
lowerback 2.99132 -0.735185 0.465992
upperback -5.86262 -0.984444 -0.377529
thorax -7.82377 -0.526881 -0.560984
lowerneck -12.4809 1.23198 8.27843
upperneck 27.5559 0.481639 -2.75769
head 10.9948 0.739093 -2.35956
rclavicle 4.58447e-015 -6.75868e-015
rhumerus 31.7343 11.3452 -62.2826
rradius 65.6324
rwrist 0.104357
rhand 30.4123 -35.0026
rfingers 7.12502
rthumb 54.0773 -53.7882
lclavicle 4.58447e-015 -6.75868e-015
lhumerus 27.5844 -9.76156 56.6588
lradius 79.7503
lwrist -9.1079
lhand 35.3205 25.6481
lfingers 7.12502
lthumb 58.416 40.9902
rfemur -26.5541 -4.9866 16.5268
rtibia 50.1859
rfoot -28.06 -8.85112
rtoes -12.8933
lfemur -27.5194 1.62637 -16.9953
ltibia 50.3254
lfoot -25.4641 9.63301
ltoes -13.0066
278
root -0.0982584 14.9183 -1.83521 7.81288 -0.834765 -0.650172
lowerback 3.00394 -0.743911 0.463613
upperback -5.83787 -0.995338 -0.364101
thorax -7.80428 -0.531532 -0.544506
lowerneck -12.5643 1.22927 8.30772
upperneck 27.6045 0.49145 -2.8605
head 11.03 0.734893 -2.40207
rclavicle 8.79622e-015 2.78299e-015
rhumerus 31.7547 11.3404 -62.3416
rradius 65.5892
rwrist 0.158485
rhand 30.0455 -34.8389
rfingers 7.12502
rthumb 53.7479 -53.846
lclavicle 8.79622e-015 2.78299e-015
lhumerus 27.5676 -9.71013 56.6528
lradius 79.7499
lwrist -9.11098
lhand 35.1378 25.5362
lfingers 7.12502
lthumb 58.2572 41.0246
rfemur -26.5522 -4.97587 16.5424
rtibia 50.1856
rfoot -28.0546 -8.8475
rtoes -12.9269
lfemur -27.5034 1.66146 -16.9818
ltibia 50.3231
lfoot -25.4696 9.64178
ltoes -12.9996
279
root -0.101265 14.9176 -1.83852 7.93418 -0.833556 -0.62331
lowerback 2.88285 -0.748005 0.430145
upperback -5.87507 -1.00564 -0.394058
thorax -7.77368 -0.535794 -0.557523
lowerneck -12.5917 1.27482 8.3375
upperneck 27.6775 0.558535 -2.90131
head 11.0677 0.765283 -2.41474
rclavicle -1.15544e-014 -2.5842e-015
rhumerus 31.7186 11.3134 -62.4323
rradius 65.6502
rwrist 0.330181
rhand 30.7615 -35.124
rfingers 7.12502
rthumb 54.3903 -53.6947
lclavicle -1.15544e-014 -2.5842e-015
lhumerus 27.6211 -9.71506 56.6217
lradius 79.8048
lwrist -9.02896
lhand 35.5151 25.2952
lfingers 7.12502
lthumb 58.585 40.4798
rfemur -26.7092 -4.98555 16.5406
rtibia 50.2014
rfoot -28.0544 -8.85052
rtoes -12.9044
lfemur -27.6628 1.69406 -17.0009
ltibia 50.3238
lfoot -25.4318 9.61237
ltoes -13.0829
280
root -0.0991545 14.9185 -1.83402 7.79931 -0.843083 -0.619739
lowerback 3.02853 -0.755879 0.427882
upperback -5.86553 -1.01512 -0.380688
thorax -7.84849 -0.539845 -0.539438
lowerneck -12.7205 1.25493 8.279
upperneck 27.8933 0.539282 -2.92895
head 11.1735 0.751396 -2.42162
rclavicle 1.40392e-015 -4.37326e-015
rhumerus 31.6871 11.4331 -62.3344
rradius 65.6656
rwrist 0.187961
rhand 30.3697 -35.0064
rfingers 7.12502
rthumb 54.039 -53.818
lclavicle 1.40392e-015 -4.37326e-015
lhumerus 27.5673 -9.71962 56.7073
lradius 79.7842
lwrist -9.15276
lhand 35.0807 25.4287
lfingers 7.12502
lthumb 58.2074 40.9625
rfemur -26.5271 -5.00851 16.5144
rtibia 50.1821
rfoot -28.0796 -8.84493
rtoes -12.9947
lfemur -27.4725 1.68261 -17.0136
ltibia 50.3025
lfoot -25.4605 9.62494
ltoes -12.9953
